<mxfile host="Electron" modified="2023-04-08T22:31:39.897Z" agent="Mozilla/5.0 (Windows NT 10.0; Win64; x64) AppleWebKit/537.36 (KHTML, like Gecko) draw.io/21.1.2 Chrome/106.0.5249.199 Electron/21.4.3 Safari/537.36" etag="DT0ctkdun69fZEWLmK02" version="21.1.2" type="device">
  <diagram name="Page-1" id="rYAXE2cuCwqDGOhN7-yt">
    <mxGraphModel dx="1436" dy="4256" grid="0" gridSize="10" guides="1" tooltips="1" connect="1" arrows="1" fold="1" page="0" pageScale="1" pageWidth="850" pageHeight="1100" math="0" shadow="0">
      <root>
        <mxCell id="0" />
        <mxCell id="1" parent="0" />
        <mxCell id="Q-Fjw3Nd-VHuedcRaIeO-1" value="" style="rounded=0;whiteSpace=wrap;html=1;fontSize=16;" vertex="1" parent="1">
          <mxGeometry x="-156" y="-3390" width="684" height="474" as="geometry" />
        </mxCell>
        <mxCell id="Q-Fjw3Nd-VHuedcRaIeO-2" value="" style="rounded=1;whiteSpace=wrap;html=1;fontSize=16;fillColor=#dae8fc;strokeColor=#6c8ebf;" vertex="1" parent="1">
          <mxGeometry x="21" y="-3065" width="483" height="130" as="geometry" />
        </mxCell>
        <mxCell id="Q-Fjw3Nd-VHuedcRaIeO-3" value="DIO" style="rounded=1;whiteSpace=wrap;html=1;fontSize=16;fillColor=#1ba1e2;fontColor=#ffffff;strokeColor=#006EAF;" vertex="1" parent="1">
          <mxGeometry x="39" y="-2991" width="102" height="34" as="geometry" />
        </mxCell>
        <mxCell id="Q-Fjw3Nd-VHuedcRaIeO-4" value="TMR" style="rounded=1;whiteSpace=wrap;html=1;fontSize=16;fillColor=#1ba1e2;fontColor=#ffffff;strokeColor=#006EAF;" vertex="1" parent="1">
          <mxGeometry x="267" y="-2991" width="102" height="34" as="geometry" />
        </mxCell>
        <mxCell id="Q-Fjw3Nd-VHuedcRaIeO-5" value="ADC" style="rounded=1;whiteSpace=wrap;html=1;fontSize=16;fillColor=#1ba1e2;fontColor=#ffffff;strokeColor=#006EAF;" vertex="1" parent="1">
          <mxGeometry x="153" y="-2991" width="102" height="34" as="geometry" />
        </mxCell>
        <mxCell id="Q-Fjw3Nd-VHuedcRaIeO-6" value="UART" style="rounded=1;whiteSpace=wrap;html=1;fontSize=16;fillColor=#1ba1e2;fontColor=#ffffff;strokeColor=#006EAF;" vertex="1" parent="1">
          <mxGeometry x="381" y="-2991" width="102" height="34" as="geometry" />
        </mxCell>
        <mxCell id="Q-Fjw3Nd-VHuedcRaIeO-7" value="MCAL" style="rounded=1;whiteSpace=wrap;html=1;fontSize=16;fillColor=#1ba1e2;fontColor=#ffffff;strokeColor=#006EAF;" vertex="1" parent="1">
          <mxGeometry x="39" y="-3051" width="120" height="46" as="geometry" />
        </mxCell>
        <mxCell id="Q-Fjw3Nd-VHuedcRaIeO-8" value="" style="rounded=1;whiteSpace=wrap;html=1;fontSize=16;fillColor=#ffe6cc;strokeColor=#d79b00;" vertex="1" parent="1">
          <mxGeometry x="21" y="-3217" width="483" height="130" as="geometry" />
        </mxCell>
        <mxCell id="Q-Fjw3Nd-VHuedcRaIeO-9" value="HAL" style="rounded=1;whiteSpace=wrap;html=1;fontSize=16;fillColor=#fa6800;fontColor=#000000;strokeColor=#C73500;" vertex="1" parent="1">
          <mxGeometry x="39" y="-3203" width="120" height="46" as="geometry" />
        </mxCell>
        <mxCell id="Q-Fjw3Nd-VHuedcRaIeO-13" value="Application Layer" style="rounded=1;whiteSpace=wrap;html=1;fontSize=16;fillColor=#d5e8d4;strokeColor=#82b366;" vertex="1" parent="1">
          <mxGeometry x="21" y="-3366" width="483" height="130" as="geometry" />
        </mxCell>
        <mxCell id="Q-Fjw3Nd-VHuedcRaIeO-14" value="Service Layer&lt;br&gt;&lt;br&gt;&lt;br&gt;FreeRTOS" style="rounded=1;whiteSpace=wrap;html=1;fontSize=16;fillColor=#f5f5f5;fontColor=#333333;strokeColor=#666666;" vertex="1" parent="1">
          <mxGeometry x="-121" y="-3364" width="120" height="430" as="geometry" />
        </mxCell>
        <mxCell id="Q-Fjw3Nd-VHuedcRaIeO-15" style="edgeStyle=none;curved=1;rounded=0;orthogonalLoop=1;jettySize=auto;html=1;exitX=0.75;exitY=0;exitDx=0;exitDy=0;fontSize=18;startSize=8;endSize=8;" edge="1" parent="1" source="Q-Fjw3Nd-VHuedcRaIeO-1" target="Q-Fjw3Nd-VHuedcRaIeO-1">
          <mxGeometry relative="1" as="geometry" />
        </mxCell>
        <mxCell id="Q-Fjw3Nd-VHuedcRaIeO-16" value="LED" style="rounded=1;whiteSpace=wrap;html=1;fontSize=16;fillColor=#fa6800;fontColor=#000000;strokeColor=#C73500;" vertex="1" parent="1">
          <mxGeometry x="39" y="-3139" width="102" height="34" as="geometry" />
        </mxCell>
        <mxCell id="Q-Fjw3Nd-VHuedcRaIeO-17" value="LCD" style="rounded=1;whiteSpace=wrap;html=1;fontSize=16;fillColor=#fa6800;fontColor=#000000;strokeColor=#C73500;" vertex="1" parent="1">
          <mxGeometry x="153" y="-3139" width="102" height="34" as="geometry" />
        </mxCell>
        <mxCell id="Q-Fjw3Nd-VHuedcRaIeO-18" value="DCM" style="rounded=1;whiteSpace=wrap;html=1;fontSize=16;fillColor=#fa6800;fontColor=#000000;strokeColor=#C73500;" vertex="1" parent="1">
          <mxGeometry x="267" y="-3139" width="102" height="34" as="geometry" />
        </mxCell>
        <mxCell id="Q-Fjw3Nd-VHuedcRaIeO-19" value="Buzzer" style="rounded=1;whiteSpace=wrap;html=1;fontSize=16;fillColor=#fa6800;fontColor=#000000;strokeColor=#C73500;" vertex="1" parent="1">
          <mxGeometry x="381" y="-3139" width="102" height="34" as="geometry" />
        </mxCell>
      </root>
    </mxGraphModel>
  </diagram>
</mxfile>
